<svg data-v-423bf9ae="" xmlns="http://www.w3.org/2000/svg" viewBox="0 0 475.0784529743346 60" class="font"><!----><!----><defs data-v-423bf9ae=""><linearGradient data-v-423bf9ae="" gradientTransform="rotate(25)" id="75a2f07c-dc37-4ae7-954a-f776a39ce67f" x1="0%" y1="0%" x2="100%" y2="0%"><stop data-v-423bf9ae="" offset="0%" style="stop-color: rgb(23, 119, 117); stop-opacity: 1;"></stop><stop data-v-423bf9ae="" offset="100%" style="stop-color: rgb(40, 210, 191); stop-opacity: 1;"></stop></linearGradient></defs><g data-v-423bf9ae="" id="d067bcd3-1ed8-4a35-92a7-fe55736bda6f" fill="url(#75a2f07c-dc37-4ae7-954a-f776a39ce67f)" transform="matrix(4.279600620269775,0,0,4.279600620269775,-1.5406655073165894,-14.208273887634277)"><path d="M5.33 11.07L5.33 11.07L5.33 11.07Q5.33 11.76 5.48 12.22L5.48 12.22L5.48 12.22Q5.63 12.67 5.85 12.94L5.85 12.94L5.85 12.94Q6.08 13.21 6.34 13.32L6.34 13.32L6.34 13.32Q6.60 13.43 6.82 13.43L6.82 13.43L6.82 13.43Q6.99 13.43 7.14 13.39L7.14 13.39L7.14 13.39Q7.28 13.34 7.39 13.29L7.39 13.29L7.39 13.29Q7.50 13.23 7.57 13.18L7.57 13.18L7.57 13.18Q7.65 13.14 7.69 13.14L7.69 13.14L7.69 13.14Q7.75 13.14 7.78 13.16L7.78 13.16L7.78 13.16Q7.80 13.18 7.83 13.23L7.83 13.23L8.07 13.60L8.07 13.60Q8.11 13.66 8.11 13.70L8.11 13.70L8.11 13.70Q8.11 13.75 8.08 13.77L8.08 13.77L8.08 13.77Q8.05 13.80 8.03 13.82L8.03 13.82L8.03 13.82Q7.80 13.98 7.47 14.15L7.47 14.15L7.47 14.15Q7.14 14.33 6.71 14.47L6.71 14.47L6.71 14.47Q6.28 14.62 5.74 14.71L5.74 14.71L5.74 14.71Q5.21 14.81 4.58 14.81L4.58 14.81L4.58 14.81Q4.07 14.81 3.55 14.72L3.55 14.72L3.55 14.72Q3.04 14.64 2.57 14.46L2.57 14.46L2.57 14.46Q2.11 14.27 1.70 13.98L1.70 13.98L1.70 13.98Q1.30 13.69 1.00 13.28L1.00 13.28L1.00 13.28Q0.70 12.87 0.53 12.31L0.53 12.31L0.53 12.31Q0.36 11.76 0.36 11.07L0.36 11.07L0.36 11.07Q0.36 10.37 0.53 9.82L0.53 9.82L0.53 9.82Q0.70 9.27 1.00 8.86L1.00 8.86L1.00 8.86Q1.30 8.44 1.70 8.15L1.70 8.15L1.70 8.15Q2.11 7.86 2.57 7.68L2.57 7.68L2.57 7.68Q3.04 7.49 3.55 7.41L3.55 7.41L3.55 7.41Q4.07 7.33 4.58 7.33L4.58 7.33L4.58 7.33Q5.14 7.33 5.66 7.41L5.66 7.41L5.66 7.41Q6.18 7.50 6.62 7.64L6.62 7.64L6.62 7.64Q7.06 7.78 7.41 7.95L7.41 7.95L7.41 7.95Q7.77 8.11 7.98 8.28L7.98 8.28L7.98 8.28Q8.01 8.30 8.04 8.33L8.04 8.33L8.04 8.33Q8.07 8.35 8.07 8.40L8.07 8.40L8.07 8.40Q8.07 8.45 8.03 8.50L8.03 8.50L7.79 8.87L7.79 8.87Q7.76 8.92 7.73 8.94L7.73 8.94L7.73 8.94Q7.71 8.96 7.65 8.96L7.65 8.96L7.65 8.96Q7.61 8.96 7.54 8.92L7.54 8.92L7.54 8.92Q7.47 8.88 7.37 8.83L7.37 8.83L7.37 8.83Q7.27 8.78 7.13 8.73L7.13 8.73L7.13 8.73Q6.99 8.69 6.82 8.69L6.82 8.69L6.82 8.69Q6.60 8.69 6.34 8.80L6.34 8.80L6.34 8.80Q6.08 8.91 5.85 9.19L5.85 9.19L5.85 9.19Q5.63 9.46 5.48 9.92L5.48 9.92L5.48 9.92Q5.33 10.38 5.33 11.07ZM12.82 14.77L12.82 14.77L12.82 14.77Q12.31 14.77 11.80 14.68L11.80 14.68L11.80 14.68Q11.29 14.60 10.82 14.42L10.82 14.42L10.82 14.42Q10.35 14.25 9.95 13.96L9.95 13.96L9.95 13.96Q9.54 13.67 9.25 13.25L9.25 13.25L9.25 13.25Q8.95 12.84 8.78 12.29L8.78 12.29L8.78 12.29Q8.61 11.74 8.61 11.03L8.61 11.03L8.61 11.03Q8.61 10.33 8.78 9.78L8.78 9.78L8.78 9.78Q8.95 9.23 9.25 8.81L9.25 8.81L9.25 8.81Q9.54 8.39 9.95 8.10L9.95 8.10L9.95 8.10Q10.35 7.81 10.82 7.63L10.82 7.63L10.82 7.63Q11.29 7.45 11.80 7.37L11.80 7.37L11.80 7.37Q12.31 7.29 12.82 7.29L12.82 7.29L12.82 7.29Q13.30 7.29 13.79 7.35L13.79 7.35L13.79 7.35Q14.29 7.40 14.76 7.56L14.76 7.56L14.76 7.56Q15.22 7.71 15.64 7.97L15.64 7.97L15.64 7.97Q16.05 8.24 16.36 8.65L16.36 8.65L16.36 8.65Q16.67 9.06 16.85 9.63L16.85 9.63L16.85 9.63Q17.04 10.20 17.04 10.97L17.04 10.97L17.04 10.97Q17.04 11.76 16.86 12.36L16.86 12.36L16.86 12.36Q16.68 12.95 16.37 13.37L16.37 13.37L16.37 13.37Q16.06 13.79 15.65 14.06L15.65 14.06L15.65 14.06Q15.24 14.33 14.77 14.49L14.77 14.49L14.77 14.49Q14.30 14.64 13.80 14.70L13.80 14.70L13.80 14.70Q13.30 14.77 12.82 14.77ZM14.92 13.13L14.92 13.13L14.92 13.13Q15.13 13.13 15.34 13.03L15.34 13.03L15.34 13.03Q15.55 12.94 15.71 12.70L15.71 12.70L15.71 12.70Q15.87 12.46 15.97 12.04L15.97 12.04L15.97 12.04Q16.07 11.62 16.07 10.97L16.07 10.97L16.07 10.97Q16.07 10.36 15.97 9.96L15.97 9.96L15.97 9.96Q15.87 9.56 15.71 9.33L15.71 9.33L15.71 9.33Q15.54 9.11 15.34 9.02L15.34 9.02L15.34 9.02Q15.13 8.93 14.92 8.93L14.92 8.93L14.92 8.93Q14.76 8.93 14.56 9.00L14.56 9.00L14.56 9.00Q14.36 9.06 14.18 9.29L14.18 9.29L14.18 9.29Q14.01 9.51 13.89 9.92L13.89 9.92L13.89 9.92Q13.77 10.34 13.77 11.03L13.77 11.03L13.77 11.03Q13.77 11.72 13.87 12.13L13.87 12.13L13.87 12.13Q13.97 12.55 14.12 12.77L14.12 12.77L14.12 12.77Q14.28 12.99 14.49 13.06L14.49 13.06L14.49 13.06Q14.70 13.13 14.92 13.13ZM25.79 4.28L25.79 13.58L25.79 13.58Q25.79 13.82 25.74 13.99L25.74 13.99L25.74 13.99Q25.70 14.17 25.59 14.29L25.59 14.29L25.59 14.29Q25.47 14.40 25.27 14.46L25.27 14.46L25.27 14.46Q25.06 14.53 24.73 14.53L24.73 14.53L21.75 14.53L21.75 14.53Q21.25 14.51 20.76 14.43L20.76 14.43L20.76 14.43Q20.27 14.36 19.83 14.19L19.83 14.19L19.83 14.19Q19.39 14.02 19.01 13.75L19.01 13.75L19.01 13.75Q18.63 13.48 18.35 13.09L18.35 13.09L18.35 13.09Q18.07 12.71 17.92 12.19L17.92 12.19L17.92 12.19Q17.76 11.66 17.76 10.99L17.76 10.99L17.76 10.99Q17.76 10.14 18.00 9.54L18.00 9.54L18.00 9.54Q18.24 8.93 18.65 8.52L18.65 8.52L18.65 8.52Q19.06 8.11 19.60 7.88L19.60 7.88L19.60 7.88Q20.15 7.64 20.75 7.53L20.75 7.53L20.75 4.29L20.75 4.29Q20.75 4.05 20.78 3.87L20.78 3.87L20.78 3.87Q20.82 3.68 20.92 3.56L20.92 3.56L20.92 3.56Q21.03 3.45 21.23 3.39L21.23 3.39L21.23 3.39Q21.42 3.33 21.74 3.33L21.74 3.33L24.73 3.33L24.73 3.33Q25.06 3.33 25.27 3.39L25.27 3.39L25.27 3.39Q25.47 3.45 25.59 3.57L25.59 3.57L25.59 3.57Q25.70 3.68 25.74 3.87L25.74 3.87L25.74 3.87Q25.79 4.05 25.79 4.28L25.79 4.28ZM18.73 10.99L18.73 10.99L18.73 10.99Q18.73 11.50 18.85 11.94L18.85 11.94L18.85 11.94Q18.96 12.38 19.21 12.72L19.21 12.72L19.21 12.72Q19.45 13.06 19.83 13.28L19.83 13.28L19.83 13.28Q20.21 13.49 20.75 13.56L20.75 13.56L20.75 8.40L20.75 8.40Q20.21 8.46 19.83 8.69L19.83 8.69L19.83 8.69Q19.45 8.91 19.21 9.25L19.21 9.25L19.21 9.25Q18.96 9.59 18.85 10.04L18.85 10.04L18.85 10.04Q18.73 10.48 18.73 10.99ZM33.24 13.39L33.24 13.39L33.24 13.39Q33.42 13.39 33.57 13.34L33.57 13.34L33.57 13.34Q33.72 13.29 33.84 13.23L33.84 13.23L33.84 13.23Q33.96 13.17 34.04 13.11L34.04 13.11L34.04 13.11Q34.12 13.06 34.16 13.06L34.16 13.06L34.16 13.06Q34.22 13.06 34.24 13.08L34.24 13.08L34.24 13.08Q34.27 13.10 34.30 13.16L34.30 13.16L34.54 13.53L34.54 13.53Q34.58 13.58 34.58 13.62L34.58 13.62L34.58 13.62Q34.58 13.67 34.55 13.70L34.55 13.70L34.55 13.70Q34.52 13.73 34.49 13.75L34.49 13.75L34.49 13.75Q34.27 13.90 33.94 14.09L33.94 14.09L33.94 14.09Q33.61 14.27 33.18 14.42L33.18 14.42L33.18 14.42Q32.74 14.57 32.20 14.67L32.20 14.67L32.20 14.67Q31.65 14.77 30.99 14.77L30.99 14.77L30.99 14.77Q30.48 14.77 29.97 14.68L29.97 14.68L29.97 14.68Q29.46 14.60 28.99 14.42L28.99 14.42L28.99 14.42Q28.52 14.25 28.12 13.96L28.12 13.96L28.12 13.96Q27.71 13.67 27.42 13.25L27.42 13.25L27.42 13.25Q27.12 12.84 26.95 12.29L26.95 12.29L26.95 12.29Q26.78 11.74 26.78 11.03L26.78 11.03L26.78 11.03Q26.78 10.33 26.95 9.78L26.95 9.78L26.95 9.78Q27.12 9.23 27.42 8.81L27.42 8.81L27.42 8.81Q27.71 8.39 28.12 8.10L28.12 8.10L28.12 8.10Q28.52 7.81 28.99 7.63L28.99 7.63L28.99 7.63Q29.46 7.45 29.97 7.37L29.97 7.37L29.97 7.37Q30.48 7.29 30.99 7.29L30.99 7.29L30.99 7.29Q31.85 7.29 32.58 7.48L32.58 7.48L32.58 7.48Q33.32 7.67 33.86 8.11L33.86 8.11L33.86 8.11Q34.40 8.54 34.71 9.26L34.71 9.26L34.71 9.26Q35.01 9.97 35.01 11.00L35.01 11.00L35.01 11.38L35.01 11.38Q35.01 11.50 34.95 11.57L34.95 11.57L34.95 11.57Q34.89 11.64 34.75 11.64L34.75 11.64L31.92 11.64L31.92 11.64Q31.97 12.15 32.11 12.49L32.11 12.49L32.11 12.49Q32.25 12.82 32.43 13.03L32.43 13.03L32.43 13.03Q32.61 13.23 32.83 13.31L32.83 13.31L32.83 13.31Q33.04 13.39 33.24 13.39ZM31.89 10.80L34.04 10.80L34.04 10.80Q34.04 10.25 33.96 9.90L33.96 9.90L33.96 9.90Q33.87 9.54 33.73 9.32L33.73 9.32L33.73 9.32Q33.58 9.11 33.39 9.02L33.39 9.02L33.39 9.02Q33.20 8.93 32.98 8.93L32.98 8.93L32.98 8.93Q32.83 8.93 32.64 8.99L32.64 8.99L32.64 8.99Q32.46 9.05 32.30 9.25L32.30 9.25L32.30 9.25Q32.14 9.45 32.02 9.82L32.02 9.82L32.02 9.82Q31.91 10.19 31.89 10.80L31.89 10.80ZM43.76 4.28L43.76 13.58L43.76 13.58Q43.76 13.82 43.72 13.99L43.72 13.99L43.72 13.99Q43.68 14.17 43.57 14.29L43.57 14.29L43.57 14.29Q43.45 14.40 43.24 14.46L43.24 14.46L43.24 14.46Q43.04 14.53 42.71 14.53L42.71 14.53L39.72 14.53L39.72 14.53Q39.22 14.51 38.74 14.43L38.74 14.43L38.74 14.43Q38.25 14.36 37.81 14.19L37.81 14.19L37.81 14.19Q37.37 14.02 36.99 13.75L36.99 13.75L36.99 13.75Q36.61 13.48 36.33 13.09L36.33 13.09L36.33 13.09Q36.05 12.71 35.90 12.19L35.90 12.19L35.90 12.19Q35.74 11.66 35.74 10.99L35.74 10.99L35.74 10.99Q35.74 10.14 35.98 9.54L35.98 9.54L35.98 9.54Q36.22 8.93 36.63 8.52L36.63 8.52L36.63 8.52Q37.04 8.11 37.58 7.88L37.58 7.88L37.58 7.88Q38.12 7.64 38.73 7.53L38.73 7.53L38.73 4.29L38.73 4.29Q38.73 4.05 38.76 3.87L38.76 3.87L38.76 3.87Q38.79 3.68 38.90 3.56L38.90 3.56L38.90 3.56Q39.01 3.45 39.20 3.39L39.20 3.39L39.20 3.39Q39.40 3.33 39.72 3.33L39.72 3.33L42.71 3.33L42.71 3.33Q43.04 3.33 43.24 3.39L43.24 3.39L43.24 3.39Q43.45 3.45 43.57 3.57L43.57 3.57L43.57 3.57Q43.68 3.68 43.72 3.87L43.72 3.87L43.72 3.87Q43.76 4.05 43.76 4.28L43.76 4.28ZM36.71 10.99L36.71 10.99L36.71 10.99Q36.71 11.50 36.83 11.94L36.83 11.94L36.83 11.94Q36.94 12.38 37.18 12.72L37.18 12.72L37.18 12.72Q37.43 13.06 37.81 13.28L37.81 13.28L37.81 13.28Q38.19 13.49 38.73 13.56L38.73 13.56L38.73 8.40L38.73 8.40Q38.19 8.46 37.81 8.69L37.81 8.69L37.81 8.69Q37.43 8.91 37.18 9.25L37.18 9.25L37.18 9.25Q36.94 9.59 36.83 10.04L36.83 10.04L36.83 10.04Q36.71 10.48 36.71 10.99ZM48.84 14.66L48.84 14.66L48.84 14.66Q47.95 14.66 47.24 14.42L47.24 14.42L47.24 14.42Q46.53 14.18 46.03 13.73L46.03 13.73L46.03 13.73Q45.54 13.28 45.28 12.61L45.28 12.61L45.28 12.61Q45.02 11.94 45.02 11.07L45.02 11.07L45.02 4.27L45.02 4.27Q45.02 4.03 45.06 3.85L45.06 3.85L45.06 3.85Q45.10 3.67 45.22 3.55L45.22 3.55L45.22 3.55Q45.34 3.44 45.54 3.38L45.54 3.38L45.54 3.38Q45.75 3.32 46.07 3.32L46.07 3.32L49.07 3.32L49.07 3.32Q49.36 3.32 49.55 3.38L49.55 3.38L49.55 3.38Q49.75 3.44 49.86 3.56L49.86 3.56L49.86 3.56Q49.97 3.68 50.02 3.86L50.02 3.86L50.02 3.86Q50.06 4.04 50.06 4.29L50.06 4.29L50.06 7.53L50.06 7.53Q50.66 7.64 51.20 7.88L51.20 7.88L51.20 7.88Q51.75 8.12 52.16 8.54L52.16 8.54L52.16 8.54Q52.57 8.96 52.81 9.58L52.81 9.58L52.81 9.58Q53.05 10.19 53.05 11.05L53.05 11.05L53.05 11.05Q53.05 11.77 52.88 12.31L52.88 12.31L52.88 12.31Q52.71 12.86 52.41 13.26L52.41 13.26L52.41 13.26Q52.12 13.67 51.72 13.93L51.72 13.93L51.72 13.93Q51.32 14.20 50.85 14.36L50.85 14.36L50.85 14.36Q50.38 14.53 49.87 14.59L49.87 14.59L49.87 14.59Q49.36 14.66 48.84 14.66ZM50.06 8.40L50.06 13.69L50.06 13.69Q50.59 13.62 50.98 13.40L50.98 13.40L50.98 13.40Q51.36 13.18 51.60 12.83L51.60 12.83L51.60 12.83Q51.84 12.48 51.96 12.03L51.96 12.03L51.96 12.03Q52.08 11.58 52.08 11.05L52.08 11.05L52.08 11.05Q52.08 10.53 51.96 10.08L51.96 10.08L51.96 10.08Q51.84 9.62 51.60 9.27L51.60 9.27L51.60 9.27Q51.35 8.92 50.97 8.70L50.97 8.70L50.97 8.70Q50.59 8.47 50.06 8.40L50.06 8.40ZM57.83 7.82L58.89 10.43L59.85 7.93L59.85 7.93Q59.88 7.84 59.91 7.77L59.91 7.77L59.91 7.77Q59.94 7.70 59.98 7.64L59.98 7.64L59.98 7.64Q60.02 7.59 60.09 7.56L60.09 7.56L60.09 7.56Q60.16 7.53 60.27 7.53L60.27 7.53L61.07 7.53L61.07 7.53Q61.26 7.53 61.26 7.64L61.26 7.64L61.26 7.64Q61.26 7.72 61.19 7.89L61.19 7.89L57.33 17.00L57.33 17.00Q57.29 17.09 57.26 17.15L57.26 17.15L57.26 17.15Q57.23 17.22 57.19 17.26L57.19 17.26L57.19 17.26Q57.16 17.30 57.10 17.32L57.10 17.32L57.10 17.32Q57.05 17.34 56.95 17.34L56.95 17.34L56.07 17.34L56.07 17.34Q55.86 17.34 55.86 17.22L55.86 17.22L55.86 17.22Q55.86 17.14 55.95 16.97L55.95 16.97L56.96 14.79L53.48 8.10L53.48 8.10Q53.44 8.03 53.43 7.96L53.43 7.96L53.43 7.96Q53.41 7.90 53.41 7.84L53.41 7.84L53.41 7.84Q53.41 7.67 53.54 7.60L53.54 7.60L53.54 7.60Q53.68 7.53 53.81 7.53L53.81 7.53L57.28 7.53L57.28 7.53Q57.52 7.53 57.66 7.63L57.66 7.63L57.66 7.63Q57.79 7.72 57.83 7.82L57.83 7.82ZM66.59 11.07L66.59 11.07L66.59 11.07Q66.59 11.76 66.74 12.22L66.74 12.22L66.74 12.22Q66.88 12.67 67.11 12.94L67.11 12.94L67.11 12.94Q67.33 13.21 67.59 13.32L67.59 13.32L67.59 13.32Q67.85 13.43 68.08 13.43L68.08 13.43L68.08 13.43Q68.25 13.43 68.39 13.39L68.39 13.39L68.39 13.39Q68.54 13.34 68.65 13.29L68.65 13.29L68.65 13.29Q68.76 13.23 68.83 13.18L68.83 13.18L68.83 13.18Q68.91 13.14 68.95 13.14L68.95 13.14L68.95 13.14Q69.01 13.14 69.03 13.16L69.03 13.16L69.03 13.16Q69.06 13.18 69.09 13.23L69.09 13.23L69.33 13.60L69.33 13.60Q69.36 13.66 69.36 13.70L69.36 13.70L69.36 13.70Q69.36 13.75 69.34 13.77L69.34 13.77L69.34 13.77Q69.31 13.80 69.28 13.82L69.28 13.82L69.28 13.82Q69.06 13.98 68.73 14.15L68.73 14.15L68.73 14.15Q68.40 14.33 67.97 14.47L67.97 14.47L67.97 14.47Q67.53 14.62 67.00 14.71L67.00 14.71L67.00 14.71Q66.47 14.81 65.84 14.81L65.84 14.81L65.84 14.81Q65.32 14.81 64.81 14.72L64.81 14.72L64.81 14.72Q64.30 14.64 63.83 14.46L63.83 14.46L63.83 14.46Q63.36 14.27 62.96 13.98L62.96 13.98L62.96 13.98Q62.56 13.69 62.26 13.28L62.26 13.28L62.26 13.28Q61.96 12.87 61.79 12.31L61.79 12.31L61.79 12.31Q61.62 11.76 61.62 11.07L61.62 11.07L61.62 11.07Q61.62 10.37 61.79 9.82L61.79 9.82L61.79 9.82Q61.96 9.27 62.26 8.86L62.26 8.86L62.26 8.86Q62.56 8.44 62.96 8.15L62.96 8.15L62.96 8.15Q63.36 7.86 63.83 7.68L63.83 7.68L63.83 7.68Q64.30 7.49 64.81 7.41L64.81 7.41L64.81 7.41Q65.32 7.33 65.84 7.33L65.84 7.33L65.84 7.33Q66.40 7.33 66.92 7.41L66.92 7.41L66.92 7.41Q67.44 7.50 67.88 7.64L67.88 7.64L67.88 7.64Q68.32 7.78 68.67 7.95L68.67 7.95L68.67 7.95Q69.02 8.11 69.24 8.28L69.24 8.28L69.24 8.28Q69.27 8.30 69.30 8.33L69.30 8.33L69.30 8.33Q69.32 8.35 69.32 8.40L69.32 8.40L69.32 8.40Q69.32 8.45 69.29 8.50L69.29 8.50L69.05 8.87L69.05 8.87Q69.02 8.92 68.99 8.94L68.99 8.94L68.99 8.94Q68.97 8.96 68.91 8.96L68.91 8.96L68.91 8.96Q68.87 8.96 68.80 8.92L68.80 8.92L68.80 8.92Q68.73 8.88 68.63 8.83L68.63 8.83L68.63 8.83Q68.52 8.78 68.39 8.73L68.39 8.73L68.39 8.73Q68.25 8.69 68.08 8.69L68.08 8.69L68.08 8.69Q67.85 8.69 67.59 8.80L67.59 8.80L67.59 8.80Q67.33 8.91 67.11 9.19L67.11 9.19L67.11 9.19Q66.88 9.46 66.74 9.92L66.74 9.92L66.74 9.92Q66.59 10.38 66.59 11.07ZM75.17 4.28L75.17 7.66L75.17 7.66Q75.32 7.54 75.53 7.46L75.53 7.46L75.53 7.46Q75.74 7.39 76.00 7.39L76.00 7.39L76.00 7.39Q76.65 7.39 77.02 7.84L77.02 7.84L77.02 7.84Q77.38 8.29 77.38 9.17L77.38 9.17L77.38 14.21L77.38 14.21Q77.38 14.32 77.35 14.39L77.35 14.39L77.35 14.39Q77.32 14.45 77.28 14.48L77.28 14.48L77.28 14.48Q77.23 14.51 77.17 14.52L77.17 14.52L77.17 14.52Q77.11 14.53 77.05 14.53L77.05 14.53L76.61 14.53L76.61 14.53Q76.43 14.53 76.38 14.42L76.38 14.42L76.38 14.42Q76.33 14.32 76.33 14.21L76.33 14.21L76.33 9.10L76.33 9.10Q76.33 8.71 76.19 8.50L76.19 8.50L76.19 8.50Q76.05 8.30 75.74 8.30L75.74 8.30L75.74 8.30Q75.58 8.30 75.42 8.38L75.42 8.38L75.42 8.38Q75.26 8.47 75.17 8.57L75.17 8.57L75.17 13.57L75.17 13.57Q75.17 13.81 75.14 13.99L75.14 13.99L75.14 13.99Q75.11 14.16 75.01 14.28L75.01 14.28L75.01 14.28Q74.91 14.40 74.72 14.46L74.72 14.46L74.72 14.46Q74.53 14.53 74.20 14.53L74.20 14.53L71.03 14.53L71.03 14.53Q70.77 14.53 70.59 14.46L70.59 14.46L70.59 14.46Q70.42 14.40 70.31 14.29L70.31 14.29L70.31 14.29Q70.21 14.17 70.17 13.99L70.17 13.99L70.17 13.99Q70.13 13.82 70.13 13.58L70.13 13.58L70.13 4.28L70.13 4.28Q70.13 4.05 70.17 3.87L70.17 3.87L70.17 3.87Q70.21 3.68 70.33 3.57L70.33 3.57L70.33 3.57Q70.44 3.45 70.65 3.39L70.65 3.39L70.65 3.39Q70.85 3.33 71.18 3.33L71.18 3.33L74.18 3.33L74.18 3.33Q74.48 3.33 74.68 3.38L74.68 3.38L74.68 3.38Q74.87 3.44 74.98 3.56L74.98 3.56L74.98 3.56Q75.09 3.68 75.13 3.86L75.13 3.86L75.13 3.86Q75.17 4.03 75.17 4.28L75.17 4.28ZM85.15 14.53L81.50 14.53L81.50 14.53Q81.13 14.53 80.76 14.48L80.76 14.48L80.76 14.48Q80.38 14.43 80.05 14.32L80.05 14.32L80.05 14.32Q79.71 14.22 79.41 14.05L79.41 14.05L79.41 14.05Q79.12 13.88 78.90 13.62L78.90 13.62L78.90 13.62Q78.69 13.37 78.57 13.03L78.57 13.03L78.57 13.03Q78.44 12.69 78.44 12.24L78.44 12.24L78.44 12.24Q78.44 11.65 78.67 11.22L78.67 11.22L78.67 11.22Q78.89 10.80 79.27 10.52L79.27 10.52L79.27 10.52Q79.65 10.24 80.14 10.09L80.14 10.09L80.14 10.09Q80.64 9.94 81.16 9.90L81.16 9.90L81.16 9.43L81.16 9.43Q81.16 9.16 81.09 9.00L81.09 9.00L81.09 9.00Q81.03 8.85 80.92 8.77L80.92 8.77L80.92 8.77Q80.81 8.69 80.69 8.66L80.69 8.66L80.69 8.66Q80.56 8.64 80.45 8.64L80.45 8.64L80.45 8.64Q80.31 8.64 80.15 8.68L80.15 8.68L80.15 8.68Q80.00 8.72 79.86 8.78L79.86 8.78L79.86 8.78Q79.71 8.84 79.58 8.91L79.58 8.91L79.58 8.91Q79.45 8.98 79.37 9.03L79.37 9.03L79.37 9.03Q79.32 9.06 79.29 9.08L79.29 9.08L79.29 9.08Q79.26 9.10 79.22 9.10L79.22 9.10L79.22 9.10Q79.16 9.10 79.11 9.01L79.11 9.01L78.87 8.64L78.87 8.64Q78.84 8.59 78.84 8.54L78.84 8.54L78.84 8.54Q78.84 8.48 78.88 8.44L78.88 8.44L78.88 8.44Q78.93 8.40 78.97 8.37L78.97 8.37L78.97 8.37Q79.19 8.22 79.54 8.05L79.54 8.05L79.54 8.05Q79.89 7.89 80.33 7.76L80.33 7.76L80.33 7.76Q80.76 7.63 81.27 7.55L81.27 7.55L81.27 7.55Q81.77 7.46 82.31 7.46L82.31 7.46L82.31 7.46Q82.82 7.46 83.31 7.50L83.31 7.50L83.31 7.50Q83.80 7.53 84.24 7.65L84.24 7.65L84.24 7.65Q84.67 7.76 85.03 7.97L85.03 7.97L85.03 7.97Q85.39 8.18 85.65 8.52L85.65 8.52L85.65 8.52Q85.91 8.86 86.06 9.36L86.06 9.36L86.06 9.36Q86.20 9.86 86.20 10.55L86.20 10.55L86.20 13.60L86.20 13.60Q86.20 13.83 86.16 14.00L86.16 14.00L86.16 14.00Q86.12 14.18 86.00 14.29L86.00 14.29L86.00 14.29Q85.89 14.41 85.68 14.47L85.68 14.47L85.68 14.47Q85.48 14.53 85.15 14.53L85.15 14.53ZM81.16 13.65L81.16 10.77L81.16 10.77Q80.67 10.77 80.34 10.89L80.34 10.89L80.34 10.89Q80.00 11.01 79.80 11.22L79.80 11.22L79.80 11.22Q79.59 11.42 79.50 11.69L79.50 11.69L79.50 11.69Q79.41 11.96 79.41 12.25L79.41 12.25L79.41 12.25Q79.41 12.54 79.50 12.79L79.50 12.79L79.50 12.79Q79.59 13.05 79.80 13.24L79.80 13.24L79.80 13.24Q80.00 13.43 80.34 13.54L80.34 13.54L80.34 13.54Q80.67 13.65 81.16 13.65L81.16 13.65ZM91.25 7.82L92.32 10.49L93.27 7.93L93.27 7.93Q93.33 7.75 93.40 7.64L93.40 7.64L93.40 7.64Q93.47 7.53 93.69 7.53L93.69 7.53L94.42 7.53L94.42 7.53Q94.62 7.53 94.62 7.64L94.62 7.64L94.62 7.64Q94.62 7.72 94.54 7.89L94.54 7.89L91.92 14.06L91.92 14.06Q91.83 14.29 91.71 14.41L91.71 14.41L91.71 14.41Q91.59 14.53 91.37 14.53L91.37 14.53L90.29 14.53L90.29 14.53Q90.15 14.53 90.05 14.48L90.05 14.48L90.05 14.48Q89.95 14.44 89.89 14.37L89.89 14.37L89.89 14.37Q89.82 14.30 89.78 14.22L89.78 14.22L89.78 14.22Q89.74 14.14 89.71 14.08L89.71 14.08L86.90 8.10L86.90 8.10Q86.84 7.97 86.84 7.86L86.84 7.86L86.84 7.86Q86.84 7.68 86.97 7.60L86.97 7.60L86.97 7.60Q87.10 7.53 87.23 7.53L87.23 7.53L90.57 7.53L90.57 7.53Q90.74 7.53 90.86 7.54L90.86 7.54L90.86 7.54Q90.97 7.55 91.05 7.59L91.05 7.59L91.05 7.59Q91.12 7.63 91.17 7.68L91.17 7.68L91.17 7.68Q91.22 7.74 91.25 7.82L91.25 7.82ZM101.45 13.39L101.45 13.39L101.45 13.39Q101.63 13.39 101.78 13.34L101.78 13.34L101.78 13.34Q101.93 13.29 102.05 13.23L102.05 13.23L102.05 13.23Q102.17 13.17 102.25 13.11L102.25 13.11L102.25 13.11Q102.33 13.06 102.37 13.06L102.37 13.06L102.37 13.06Q102.43 13.06 102.45 13.08L102.45 13.08L102.45 13.08Q102.48 13.10 102.51 13.16L102.51 13.16L102.75 13.53L102.75 13.53Q102.79 13.58 102.79 13.62L102.79 13.62L102.79 13.62Q102.79 13.67 102.76 13.70L102.76 13.70L102.76 13.70Q102.73 13.73 102.70 13.75L102.70 13.75L102.70 13.75Q102.48 13.90 102.15 14.09L102.15 14.09L102.15 14.09Q101.82 14.27 101.39 14.42L101.39 14.42L101.39 14.42Q100.95 14.57 100.41 14.67L100.41 14.67L100.41 14.67Q99.86 14.77 99.20 14.77L99.20 14.77L99.20 14.77Q98.69 14.77 98.18 14.68L98.18 14.68L98.18 14.68Q97.67 14.60 97.20 14.42L97.20 14.42L97.20 14.42Q96.73 14.25 96.33 13.96L96.33 13.96L96.33 13.96Q95.92 13.67 95.62 13.25L95.62 13.25L95.62 13.25Q95.33 12.84 95.16 12.29L95.16 12.29L95.16 12.29Q94.99 11.74 94.99 11.03L94.99 11.03L94.99 11.03Q94.99 10.33 95.16 9.78L95.16 9.78L95.16 9.78Q95.33 9.23 95.62 8.81L95.62 8.81L95.62 8.81Q95.92 8.39 96.33 8.10L96.33 8.10L96.33 8.10Q96.73 7.81 97.20 7.63L97.20 7.63L97.20 7.63Q97.67 7.45 98.18 7.37L98.18 7.37L98.18 7.37Q98.69 7.29 99.20 7.29L99.20 7.29L99.20 7.29Q100.06 7.29 100.79 7.48L100.79 7.48L100.79 7.48Q101.53 7.67 102.07 8.11L102.07 8.11L102.07 8.11Q102.61 8.54 102.92 9.26L102.92 9.26L102.92 9.26Q103.22 9.97 103.22 11.00L103.22 11.00L103.22 11.38L103.22 11.38Q103.22 11.50 103.16 11.57L103.16 11.57L103.16 11.57Q103.10 11.64 102.96 11.64L102.96 11.64L100.13 11.64L100.13 11.64Q100.18 12.15 100.32 12.49L100.32 12.49L100.32 12.49Q100.46 12.82 100.64 13.03L100.64 13.03L100.64 13.03Q100.82 13.23 101.04 13.31L101.04 13.31L101.04 13.31Q101.25 13.39 101.45 13.39ZM100.10 10.80L102.25 10.80L102.25 10.80Q102.25 10.25 102.17 9.90L102.17 9.90L102.17 9.90Q102.08 9.54 101.94 9.32L101.94 9.32L101.94 9.32Q101.79 9.11 101.60 9.02L101.60 9.02L101.60 9.02Q101.40 8.93 101.19 8.93L101.19 8.93L101.19 8.93Q101.04 8.93 100.85 8.99L100.85 8.99L100.85 8.99Q100.67 9.05 100.51 9.25L100.51 9.25L100.51 9.25Q100.34 9.45 100.23 9.82L100.23 9.82L100.23 9.82Q100.12 10.19 100.10 10.80L100.10 10.80ZM104.04 8.37L104.04 7.75L104.04 7.75Q104.04 7.64 104.08 7.58L104.08 7.58L104.08 7.58Q104.13 7.53 104.29 7.53L104.29 7.53L110.89 7.53L110.89 7.53Q111.15 7.53 111.25 7.59L111.25 7.59L111.25 7.59Q111.36 7.65 111.36 7.81L111.36 7.81L111.36 7.81Q111.36 8.00 111.23 8.22L111.23 8.22L108.51 13.56L108.51 13.56Q109.14 13.54 109.67 13.52L109.67 13.52L109.67 13.52Q109.89 13.51 110.12 13.50L110.12 13.50L110.12 13.50Q110.34 13.49 110.53 13.49L110.53 13.49L110.53 13.49Q110.72 13.48 110.86 13.48L110.86 13.48L110.86 13.48Q111.00 13.47 111.05 13.47L111.05 13.47L111.05 13.47Q111.17 13.47 111.27 13.52L111.27 13.52L111.27 13.52Q111.37 13.56 111.37 13.70L111.37 13.70L111.37 14.19L111.37 14.19Q111.37 14.31 111.29 14.42L111.29 14.42L111.29 14.42Q111.21 14.53 110.98 14.53L110.98 14.53L104.11 14.53L104.11 14.53Q103.91 14.53 103.82 14.44L103.82 14.44L103.82 14.44Q103.72 14.36 103.72 14.25L103.72 14.25L103.72 14.25Q103.72 14.11 103.77 13.98L103.77 13.98L103.77 13.98Q103.82 13.85 103.94 13.63L103.94 13.63L106.59 8.48L106.59 8.48Q106.06 8.51 105.60 8.53L105.60 8.53L105.60 8.53Q105.40 8.54 105.21 8.55L105.21 8.55L105.21 8.55Q105.01 8.56 104.83 8.57L104.83 8.57L104.83 8.57Q104.64 8.57 104.50 8.58L104.50 8.58L104.50 8.58Q104.36 8.58 104.28 8.58L104.28 8.58L104.28 8.58Q104.19 8.58 104.11 8.54L104.11 8.54L104.11 8.54Q104.04 8.50 104.04 8.37L104.04 8.37Z"></path></g><!----><!----></svg>