<svg xmlns="http://www.w3.org/2000/svg" viewBox="0 0 910.93 296.66"><defs><style>.cls-1{fill:#8bd8bd;}.cls-2{fill:#f2f2f2;}.cls-3{fill:none;stroke:#8bd8bd;stroke-linecap:round;stroke-miterlimit:10;stroke-width:40px;}</style></defs><g id="Layer_2" data-name="Layer 2"><g id="Layer_1-2" data-name="Layer 1"><path class="cls-1" d="M80.27,80a38.31,38.31,0,0,0-12.92,2.18,29.92,29.92,0,0,0-10.61,6.39,31.37,31.37,0,0,0-7.22,10.48,36.68,36.68,0,0,0-2.72,14.69q0,16.88,9.66,25.31T80,147.48a46.87,46.87,0,0,0,14.15-1.9,86.94,86.94,0,0,0,10.61-4.08,28.24,28.24,0,0,1,8.17,8.3,20.37,20.37,0,0,1,2.72,10.75q0,11.16-10.62,17.27T75.65,184a90.36,90.36,0,0,1-31-5,69.94,69.94,0,0,1-23.81-14.15,62.42,62.42,0,0,1-15.38-21.9A71.54,71.54,0,0,1,0,114.56q0-18,5.85-31.43A60.88,60.88,0,0,1,21.77,61,67.6,67.6,0,0,1,45,47.89a88.57,88.57,0,0,1,27.9-4.35q19.59,0,30.2,7.07t10.61,18.23a19.76,19.76,0,0,1-2.45,9.66,33.46,33.46,0,0,1-5.71,7.76A88.6,88.6,0,0,0,94.42,82,47.21,47.21,0,0,0,80.27,80Z"/><path class="cls-1" d="M246.13,149.26a14.75,14.75,0,0,1,.68,3.81c.09,1.46.14,2.82.14,4.08a38.34,38.34,0,0,1-1.09,9.26,20.92,20.92,0,0,1-3.54,7.61,18.35,18.35,0,0,1-6.39,5.31,21.51,21.51,0,0,1-9.93,2,27.77,27.77,0,0,1-11.3-2.45q-5.58-2.44-13.74-7.07l-58.5-33.74q-7.08-9.26-7.07-24.49,0-11.43,3.26-17.69a23.65,23.65,0,0,1,9.52-9.8L223,42.59q13.33,3.55,18.1,9.67a21.1,21.1,0,0,1,4.76,13.19q0,9.52-4.76,14.83t-14,9.93l-47.9,24.22Z"/><path class="cls-1" d="M326.8,72.11a14.75,14.75,0,0,1-.68-3.81c-.09-1.45-.14-2.81-.14-4.08A38.25,38.25,0,0,1,327.07,55a21.14,21.14,0,0,1,3.54-7.62A18.35,18.35,0,0,1,337,42a21.52,21.52,0,0,1,9.94-2,27.89,27.89,0,0,1,11.29,2.45q5.58,2.44,13.74,7.07l58.5,33.75q7.08,9.24,7.08,24.49,0,11.42-3.27,17.68a23.53,23.53,0,0,1-9.52,9.8l-74.83,43.54q-13.33-3.54-18.1-9.66a21.1,21.1,0,0,1-4.76-13.2q0-9.53,4.76-14.83t14-9.93l47.89-24.22Z"/><path class="cls-1" d="M454.14,113.74q0-18,5.45-31.15a59.45,59.45,0,0,1,15.1-21.91,62.1,62.1,0,0,1,22.58-12.92,89.22,89.22,0,0,1,27.9-4.22,59,59,0,0,1,10.61,1,43.11,43.11,0,0,1,8.43,2.31V2.72A75.81,75.81,0,0,1,552.92,1,78.4,78.4,0,0,1,565.17,0a63.33,63.33,0,0,1,10.74.82,18.29,18.29,0,0,1,8,3.26,14.76,14.76,0,0,1,4.9,6.67,31,31,0,0,1,1.63,11v129q0,12.8-12,20.41-7.89,5.18-20.41,9.11a106.06,106.06,0,0,1-60.54-1,64.26,64.26,0,0,1-23.68-14.15A60.69,60.69,0,0,1,459.18,143,80,80,0,0,1,454.14,113.74Zm77.28-34q-14.68,0-22.58,8.43T501,113.74q0,16.88,7.34,25.44t21.23,8.57a24.73,24.73,0,0,0,8.84-1.49,20.16,20.16,0,0,0,6.12-3.4V83A25,25,0,0,0,531.42,79.73Z"/><path class="cls-1" d="M689.25,184.22a95.5,95.5,0,0,1-29.8-4.49,67.38,67.38,0,0,1-23.94-13.47,62.28,62.28,0,0,1-16.06-22.59q-5.85-13.6-5.85-31.83,0-18,5.85-30.89a59.85,59.85,0,0,1,37.14-33.47,81.5,81.5,0,0,1,25-3.94,75.66,75.66,0,0,1,26.26,4.35,63.54,63.54,0,0,1,20.41,12A53.49,53.49,0,0,1,741.63,78.1a55.88,55.88,0,0,1,4.76,23.13q0,9.24-5.17,14.14t-14.42,6.26L659.59,131.7q3,9,12.24,13.47a48.08,48.08,0,0,0,21.23,4.49,75.84,75.84,0,0,0,21.09-2.86,67,67,0,0,0,16.19-6.66,22.81,22.81,0,0,1,7.34,7.61,19.53,19.53,0,0,1,3,10.35q0,12.24-11.43,18.23a60.8,60.8,0,0,1-19.59,6.26A139.17,139.17,0,0,1,689.25,184.22ZM681.63,77.28a26.94,26.94,0,0,0-11.29,2.18A22.72,22.72,0,0,0,662.58,85a23.17,23.17,0,0,0-4.49,7.62,31.3,31.3,0,0,0-1.77,8.58l46.53-7.62q-.81-5.44-6-10.89T681.63,77.28Z"/><path class="cls-1" d="M763,113.74q0-18,5.44-31.15a59.57,59.57,0,0,1,15.1-21.91,62.06,62.06,0,0,1,22.59-12.92A89.11,89.11,0,0,1,834,43.54a58.89,58.89,0,0,1,10.61,1,43.24,43.24,0,0,1,8.44,2.31V2.72A75.53,75.53,0,0,1,861.76,1,78.4,78.4,0,0,1,874,0a63.45,63.45,0,0,1,10.75.82,18.25,18.25,0,0,1,8,3.26,14.76,14.76,0,0,1,4.9,6.67,31,31,0,0,1,1.64,11v129q0,12.8-12,20.41a82.35,82.35,0,0,1-20.41,9.11,106.06,106.06,0,0,1-60.54-1,64.22,64.22,0,0,1-23.67-14.15A60.72,60.72,0,0,1,768,143,80,80,0,0,1,763,113.74Zm77.28-34q-14.7,0-22.59,8.43t-7.89,25.58q0,16.88,7.35,25.44t21.22,8.57a24.78,24.78,0,0,0,8.85-1.49,20.28,20.28,0,0,0,6.12-3.4V83A25,25,0,0,0,840.27,79.73Z"/><path class="cls-2" d="M17.65,253.18H33.28c8.58,0,13.19,4.37,13.19,10.57a9.34,9.34,0,0,1-6.91,9.39c3.2.86,8.52,3.87,8.52,10.62,0,8.6-6.73,12.41-14.54,12.41H17.65Zm14.48,18.49c7.75,0,10.69-2.77,10.69-7.74,0-4.24-3.07-7.67-9.35-7.67H21v15.41ZM21,293.1H33.66c5.9,0,10.83-2.83,10.83-9.15,0-5.47-3.65-9.21-12.68-9.21H21Z"/><path class="cls-2" d="M138,296.17V280a2,2,0,0,0-.26-1l-16-25.86h4c4.48,7.31,12.29,20,14.22,23.21,1.92-3.19,9.8-15.78,14.6-23.21h3.84l-16.72,26.1a1.91,1.91,0,0,0-.19.92v16Z"/><path class="cls-2" d="M356,284.68c-2.11,6.82-7.36,12-16.85,12-12.87,0-19.66-9.83-19.66-21.92,0-11.61,6.66-22.17,19.73-22.17,9.67,0,15.37,5.16,16.85,12.34h-3.46c-2.05-5.58-5.83-9.27-13.58-9.27-11.15,0-15.83,9.76-15.83,19s4.62,18.91,16.08,18.91c7.31,0,11-3.62,13.26-8.91Z"/><path class="cls-2" d="M436.14,253.18h3.46v18.73h26.9V253.18H470v43H466.5V275H439.6v21.19h-3.46Z"/><path class="cls-2" d="M557.78,281.31l-5.7,14.86h-3.52l16.46-43h4.1l17.17,43h-3.78l-5.83-14.86Zm17.75-3.07c-5-12.77-7.56-18.91-8.46-21.8H567c-1.09,3.25-4,10.87-8,21.8Z"/><path class="cls-2" d="M672.45,296.17l-16.66-43h3.72l8.71,22.48c2.5,6.51,5.32,13.69,6.28,17.31h.12c1-3.19,4-10.74,6.54-17.07l9-22.72h3.65l-17.29,43Z"/><path class="cls-2" d="M798.25,275H775.39V293.1h25l-.51,3.07h-28v-43h27.48v3.08h-24V272h22.86Z"/><path class="cls-2" d="M877.17,293.4l29.08-37.14H878.71v-3.08h31.64v2.89l-28.89,37h29.47l-.58,3.07H877.17Z"/><line class="cls-3" x1="232.34" y1="162.85" x2="343.61" y2="59.28"/><path class="cls-2" d="M321.88,62.86A23.06,23.06,0,0,1,328,46.53Q334,40,344.51,40t16.56,6.53a23.1,23.1,0,0,1,6.06,16.33,23.06,23.06,0,0,1-6.06,16.32q-6.07,6.54-16.56,6.53T328,79.18A23,23,0,0,1,321.88,62.86Z"/><path class="cls-2" d="M203.92,65.45A23,23,0,0,1,210,49.13q6.06-6.54,16.56-6.54t16.56,6.54a23.06,23.06,0,0,1,6.06,16.32,23.08,23.08,0,0,1-6.06,16.33q-6.08,6.52-16.56,6.53T210,81.78A23,23,0,0,1,203.92,65.45Z"/><path class="cls-2" d="M208.35,161.36A23.06,23.06,0,0,1,214.41,145q6.06-6.54,16.56-6.54T247.53,145a25,25,0,0,1,0,32.65q-6.06,6.52-16.56,6.53t-16.56-6.53A23.08,23.08,0,0,1,208.35,161.36Z"/><path class="cls-2" d="M324.15,155.92a23.06,23.06,0,0,1,6.07-16.33q6.06-6.53,16.56-6.53t16.56,6.53a25,25,0,0,1,0,32.66q-6.07,6.52-16.56,6.53t-16.56-6.53A23.06,23.06,0,0,1,324.15,155.92Z"/></g></g></svg>